<?xml version="1.0" standalone="no"?><!DOCTYPE svg PUBLIC "-//W3C//DTD SVG 1.1//EN" "http://www.w3.org/Graphics/SVG/1.1/DTD/svg11.dtd"><svg class="icon" width="200px" height="200.00px" viewBox="0 0 1024 1024" version="1.1" xmlns="http://www.w3.org/2000/svg"><path d="M8.087485 516.982323C4.977071 234.556778 228.304759 3.142015 506.997807 0.031602c278.070965-3.110413 506.375315 223.949771 508.863646 506.997397 3.110413 282.425544-220.217275 514.46239-498.910323 516.950721-278.070965 2.488331-505.753232-223.949771-508.863645-506.997397" fill="#CDD9DD" /><path d="M406.842493 385.100791l297.355529 147.433599V385.100791z" fill="#34495E" /><path d="M255.054315 549.952705H191.60188c-21.772894 0-39.813293-18.662481-39.813292-41.67954v-17.418316c0-23.01706 18.040398-41.679541 39.813292-41.67954h63.452435v100.777396z" fill="#EA7570" /><path d="M456.609109 634.555952h-136.858193c-60.964104 0-110.73072-52.254946-110.73072-116.951547V485.256105c0-64.6966 49.766616-116.951547 110.73072-116.951547H455.987026V634.555952z" fill="#025092" /><path d="M456.609109 368.926641h-136.858193c-88.957826 0-130.015284 98.289066-106.376141 182.27023h242.612251V368.926641z" fill="#025092" /><path d="M426.74914 778.257055c0 2.488331-0.622083 4.976662-2.488331 6.84291-1.866248 1.866248-4.354579 3.110413-6.84291 3.110413h-22.394977c-13.063737 0-25.505391-7.464992-30.482052-19.284563L306.065096 634.555952h105.131976l15.552068 143.701103z" fill="#023C6E" /><path d="M332.814652 629.579291l91.446157 155.520674-18.662481-176.049403z" fill="#022D53" /><path d="M770.138788 697.386304L456.609109 634.555952V368.926641l313.529679-62.20827z" fill="#1ABBEE" /><path d="M770.138788 737.82168c0 0.622083-0.622083 1.866248-1.244165 1.866248s-1.866248 0-1.866249-1.244166c-11.197489-28.615804-43.545789-53.499112-49.144533-51.632863l-3.110413-0.622083-258.164319-51.632864V368.926641l259.408484-51.632864 2.488331-0.622083c4.354579-2.488331 31.726218-17.418315 45.412037-44.167871 0.622083-1.866248 2.488331-2.488331 4.354579-1.866248 1.866248 0.622083 2.488331 1.866248 2.488331 3.732496v463.451609z" fill="#1ABBEE" /><path d="M456.609109 551.196871V634.555952l258.164319 51.632864 3.110413 0.622083c5.598744-1.866248 37.947044 23.01706 49.144533 51.632863 0.622083 0.622083 1.244165 1.244165 1.866249 1.244166 0.622083 0 1.244165-1.244165 1.244165-1.866248V602.829735l-313.529679-51.632864z" fill="#148CB3" /><path d="M770.138788 274.370071c0-1.866248-1.244165-3.110413-2.488331-3.732496-1.866248-0.622083-3.110413 0.622083-4.354579 1.866248-13.063737 26.127473-40.435375 41.679541-45.412037 44.167871l-2.48833 0.622083L455.987026 368.926641V541.243548l314.151762 60.964104V274.370071z" fill="#1ABBEE" /><path d="M767.650457 270.637575c-1.866248-0.622083-3.110413 0.622083-4.354579 1.866248-11.197489 21.772894-31.726218 36.080796-41.057458 41.67954v278.693048l47.900368 9.331241V274.370071c0-1.244165-1.244165-3.110413-2.488331-3.732496z" fill="#148CB3" /><path d="M213.996857 551.196871c13.685819 47.900368 55.987443 83.359081 106.376141 83.359081h136.236111V551.196871h-242.612252z" fill="#023C6E" /></svg>