<?xml version="1.0" standalone="no"?><!DOCTYPE svg PUBLIC "-//W3C//DTD SVG 1.1//EN" "http://www.w3.org/Graphics/SVG/1.1/DTD/svg11.dtd"><svg class="icon" width="200px" height="200.00px" viewBox="0 0 1024 1024" version="1.1" xmlns="http://www.w3.org/2000/svg"><path d="M8.087516 512.622736C7.465402 230.183225 233.292589 0.623358 511.377305 0.001244 789.462022-0.620869 1015.911322 228.316884 1015.911322 511.378509c0.622113 282.439511-225.205073 511.999378-503.28979 512.621491-278.084717 0-503.911903-228.31564-504.534016-511.377264" fill="#EA7570" /><path d="M841.98084 520.548461a338.429722 329.720134 90 1 0-659.440268 0 338.429722 329.720134 90 1 0 659.440268 0Z" fill="#374552" /><path d="M511.999419 512.000622m-329.720134 0a329.720134 329.720134 0 1 0 659.440268 0 329.720134 329.720134 0 1 0-659.440268 0Z" fill="#495C6D" /><path d="M796.516789 501.934826a274.352036 284.305851 90 1 0-568.611703 0 274.352036 284.305851 90 1 0 568.611703 0Z" fill="#374552" /><path d="M247.601198 512.622736c0 144.330323 115.713104 261.287653 258.7992 263.776107l-0.622114-528.796442c-143.086096 3.110567-258.177086 120.690011-258.177086 265.020335z" fill="#FFFCE9" /><path d="M511.999419 247.602401h-5.599021l0.622113 528.796442h5.599021c146.196663 0 264.398221-118.823671 263.776107-265.020334 0-145.57455-118.823671-263.776107-264.39822-263.776108z" fill="#F2F2F2" /><path d="M511.999419 247.602401h-6.843248l1.244227 528.796442h6.221134c146.196663 0 264.398221-118.823671 263.776107-265.020334 0-145.57455-118.823671-263.776107-264.39822-263.776108z" fill="#F2F2F2" /><path d="M571.722311 539.373614c4.976908 3.110567 6.221135 9.953815 3.110567 14.930723l-0.622113 0.622114c-1.86634 2.488454-3.732681 3.732681-6.843248 4.354794-2.488454 0.622113-5.599021 0-8.087475-1.86634L372.02389 431.747986c-4.976908-3.110567-6.221135-9.953815-3.110567-14.930723 1.86634-2.488454 4.354794-4.354794 7.465361-4.976908 3.110567-0.622113 6.221135 0 8.709589 1.86634l186.634038 125.666919z" fill="#554D53" /><path d="M701.744024 469.074793h1.244227c0.622113 0 0.622113 0.622113 0.622114 1.244227s-0.622113 1.86634-1.244227 1.866341l-268.753015 52.879644h-1.244227c-0.622113 0-0.622113-0.622113-0.622114-1.244227s0.622113-1.86634 1.244227-1.866341l268.753015-52.879644z" fill="#EA7570" /><path d="M487.736994 573.589855c-3.110567 4.976908-9.953815 6.221135-14.930723 3.110567l-5.599021-3.732681c-2.488454-1.86634-3.732681-3.732681-4.354795-6.843248-0.622113-2.488454 0-5.599021 1.866341-8.087475l153.662025-225.205072c3.110567-4.976908 9.953815-6.221135 14.308609-3.110568l5.599021 3.732681c2.488454 1.86634 3.732681 3.732681 4.354794 6.843248 0.622113 2.488454 0 5.599021-1.86634 8.087475L487.736994 573.589855z" fill="#585055" /><path d="M511.999419 290.52823m-18.041291 0a18.04129 18.04129 0 1 0 36.082581 0 18.04129 18.04129 0 1 0-36.082581 0Z" fill="#858585" /><path d="M284.928006 513.866962m-18.041291 0a18.04129 18.04129 0 1 0 36.082581 0 18.04129 18.04129 0 1 0-36.082581 0Z" fill="#858585" /><path d="M733.471811 513.244849m-18.041291 0a18.04129 18.04129 0 1 0 36.082581 0 18.04129 18.04129 0 1 0-36.082581 0Z" fill="#858585" /><path d="M512.621532 726.007652m-18.04129 0a18.04129 18.04129 0 1 0 36.082581 0 18.04129 18.04129 0 1 0-36.082581 0Z" fill="#858585" /><path d="M511.999419 512.000622m-33.594127 0a33.594127 33.594127 0 1 0 67.188254 0 33.594127 33.594127 0 1 0-67.188254 0Z" fill="#585055" /></svg>