<?xml version="1.0" standalone="no"?><!DOCTYPE svg PUBLIC "-//W3C//DTD SVG 1.1//EN" "http://www.w3.org/Graphics/SVG/1.1/DTD/svg11.dtd"><svg class="icon" width="200px" height="199.80px" viewBox="0 0 1025 1024" version="1.1" xmlns="http://www.w3.org/2000/svg"><path d="M512 0C229.216545 0 0 229.216545 0 512c0 37.995134 4.360097 75.367397 12.457421 110.871046 50.452555 229.216545 255.377129 401.128954 500.16545 401.128954s449.090024-171.912409 500.16545-401.128954c8.097324-35.50365 12.457421-72.875912 12.457421-110.871046-1.245742-282.783455-230.462287-512-513.245742-512z" fill="#6B71BB" /><path d="M322.024331 862.676399s38.618005 24.914842 52.321168-1.868613 3.114355-104.642336 16.194647-108.379562c18.06326-4.982968 35.50365-16.817518 44.846715-43.600973 22.423358-64.778589 6.851582-217.381995 6.851582-217.381996l-26.783455-36.12652L307.075426 485.839416l-44.846716 85.333333 14.326035 143.260341 45.469586 148.243309z" fill="#E0ACA6" /><path d="M707.581509 715.678832H292.126521V200.564477c0-7.474453 6.22871-13.703163 13.703163-13.703163h388.671533c7.474453 0 13.703163 6.22871 13.703163 13.703163v515.114355z" fill="#111217" /><path d="M333.23601 228.593674h332.613138v432.895377H333.23601z" fill="#3498DD" /><path d="M512.622871 456.564477m-76.613139 0a76.613139 76.613139 0 1 0 153.226278 0 76.613139 76.613139 0 1 0-153.226278 0Z" fill="#F7F9F9" /><path d="M512.622871 456.564477m-52.944039 0a52.944039 52.944039 0 1 0 105.888078 0 52.944039 52.944039 0 1 0-105.888078 0Z" fill="#F7F9F9" /><path d="M512.622871 456.564477m-23.6691 0a23.6691 23.6691 0 1 0 47.3382 0 23.6691 23.6691 0 1 0-47.3382 0Z" fill="#F7F9F9" /><path d="M499.542579 686.403893m-15.571776 0a15.571776 15.571776 0 1 0 31.143552 0 15.571776 15.571776 0 1 0-31.143552 0Z" fill="#808080" /><path d="M531.931873 471.513382c21.177616 83.46472 31.143552 153.226277 69.138687 220.49635l52.321167 39.240876 31.143553-18.06326-152.603407-241.673966z" fill="#111217" /><path d="M866.413625 772.982968c-3.114355-39.863747 11.83455-132.671533-62.287104-178.141119-4.360097-2.491484-7.474453-8.097324-14.948905-6.851581-6.851582 0.622871-11.83455-7.474453-18.063261-7.474453-79.727494-6.851582-115.854015 22.423358-115.854014 22.423358-22.423358-36.749392-82.218978-137.03163-82.218978-137.03163-18.06326-19.309002-50.452555-2.491484-37.995134 24.29197 0 0 105.888078 196.827251 113.36253 207.416059 8.097324 13.080292-4.982968 8.720195-6.851581 4.982968-2.491484-3.737226-34.257908-80.350365-87.201947-64.155718-8.720195 6.22871-10.588808 11.83455-4.360097 24.291971 0 0 41.73236 54.812652 47.338199 71.007299 5.605839 16.194647 21.177616 74.121655 105.265207 89.07056 51.698297 9.343066 75.990268 55.435523 86.579076 89.07056l98.413625-64.778589c-10.588808-28.652068-19.931873-56.681265-21.177616-74.121655zM356.905109 695.746959s12.457421-94.676399-65.401459-122.705596c-1.245742-9.965937-5.605839-32.389294 14.326034-41.10949 19.931873-8.720195 52.321168-50.452555 22.423357-68.515815-29.89781-18.06326-100.282238 31.766423-108.379562 102.150852-8.097324 70.384428 11.211679 132.048662 33.635037 179.386861 22.423358 47.3382-0.622871 137.03163-0.622871 137.03163l79.104623-23.669099 24.914841-162.569343z" fill="#E0ACA6" /><path d="M260.360097 786.686131l122.082725-14.326034v53.56691z" fill="#111217" /><path d="M250.394161 792.291971l12.457421-21.800487 117.722627 16.194647 4.360098 22.423358z" fill="#F7F9F9" /><path d="M231.085158 782.326034l198.072993 24.914842-9.965937 198.072993c-79.104623-13.080292-142.63747-33.012165-208.038929-74.121655l19.931873-148.86618z" fill="#F17F69" /><path d="M402.997567 862.676399m-19.309003 0a19.309002 19.309002 0 1 0 38.618005 0 19.309002 19.309002 0 1 0-38.618005 0Z" fill="#F7F9F9" /><path d="M763.639903 862.053528c48.583942-36.126521 90.316302-74.121655 101.52798-107.756691 0 0 3.114355 61.664234 23.046229 69.138686 19.309002 8.097324-41.73236 28.029197-41.73236 28.029197l-82.841849 10.588808z" fill="#111217" /><path d="M892.574209 799.766423l-11.83455-29.89781-122.082725 87.201947 5.60584 31.766423z" fill="#F7F9F9" /><path d="M898.80292 784.194647L741.216545 868.282238l9.965937 88.447689s127.688564-59.172749 164.437956-122.082725l-16.817518-50.452555z" fill="#1B959C" /><path d="M865.790754 830.909976m-19.309002 0a19.309002 19.309002 0 1 0 38.618005 0 19.309002 19.309002 0 1 0-38.618005 0Z" fill="#F7F9F9" /><path d="M495.182482 209.284672m-4.982969 0a4.982968 4.982968 0 1 0 9.965937 0 4.982968 4.982968 0 1 0-9.965937 0Z" fill="#808080" /></svg>