<?xml version="1.0" standalone="no"?><!DOCTYPE svg PUBLIC "-//W3C//DTD SVG 1.1//EN" "http://www.w3.org/Graphics/SVG/1.1/DTD/svg11.dtd"><svg class="icon" width="200px" height="200.00px" viewBox="0 0 1024 1024" version="1.1" xmlns="http://www.w3.org/2000/svg"><path d="M1015.851339 507.434836a511.937438 503.850941 89.488 1 0-1007.661648 9.00479 511.937438 503.850941 89.488 1 0 1007.661648-9.00479Z" fill="#E05B49" /><path d="M550.979445 833.041911c0 6.842147-5.59812 12.440266-12.440266 12.440267h-41.674893c-6.842147 0-12.440266-5.59812-12.440266-12.440267s5.59812-12.440266 12.440266-12.440266h41.674893c7.46416 0 12.440266 5.59812 12.440266 12.440266z" fill="#304D5C" /><path d="M677.870162 474.140226c0-87.703878-70.909518-159.23541-159.23541-159.235409h-2.488053V827.443791h32.344693c24.880533 0 45.406972-22.392479 45.406972-49.761065 0-77.751665-9.3302-130.000784 32.966706-185.359969V591.07873c31.100666-28.612613 51.005092-70.287505 51.005092-116.938504z" fill="#EFB04A" /><path d="M360.021356 474.140226c0 44.162946 18.038386 83.971798 46.650999 112.584411v0.622013c45.406972 54.115159 36.698786 99.522131 36.698786 190.336076 0 27.368586 20.52644 49.761065 45.406972 49.761065h27.990599V315.52683c-87.081865 1.244027-156.747356 72.153545-156.747356 158.613396z" fill="#EFC84A" /><path d="M593.276351 708.639247h-149.283197c0.622013 20.52644-0.622013 44.162946-0.622013 72.775559 0 25.502546 20.52644 46.028986 45.406972 46.028985H549.113405c24.880533 0 45.406972-20.52644 45.406972-46.028985-0.622013-26.746573-1.86604-51.005092-1.244026-72.775559z" fill="#DEDEDE" /><path d="M593.898364 768.352526c0-6.220133 0-12.440266-0.622013-18.038386H443.371141v18.038386h150.527223z" fill="#C7C7C7" /><path d="M444.615167 791.989032c4.976107 20.52644 23.014493 35.454759 44.162946 35.454759H549.113405c21.770466 0 39.186839-14.92832 44.162946-35.454759H444.615167z" fill="#DEDEDE" /><path d="M443.993154 732.897767h149.90521v-19.904426H443.993154v19.904426zM589.544271 801.319232c2.488053-4.976107 4.354093-12.440266 4.354093-18.038386H443.371141c-1.244027 6.842147 2.488053 13.684293 4.976106 18.038386h141.197024z" fill="#C7C7C7" /><path d="M443.993154 708.639247L586.434204 807.539365s11.818253-17.416373 7.46416-36.076772l-0.622013-60.335292-149.283197-2.488054z"  /></svg>