<?xml version="1.0" standalone="no"?><!DOCTYPE svg PUBLIC "-//W3C//DTD SVG 1.1//EN" "http://www.w3.org/Graphics/SVG/1.1/DTD/svg11.dtd"><svg class="icon" width="200px" height="200.00px" viewBox="0 0 1024 1024" version="1.1" xmlns="http://www.w3.org/2000/svg"><path d="M1015.834626 507.426421a511.928949 503.842586 89.488 1 0-1007.644939 9.004642 511.928949 503.842586 89.488 1 0 1007.644939-9.004642Z" fill="#304D5C" /><path d="M1009.386654 482.840406L730.107305 317.387607l-47.272228 66.554321 299.805448 303.537466c19.904096-55.98027 34.210165-125.644607 26.746129-204.638988z" fill="#FFFFFF" /><path d="M623.122789 466.668328l133.730646 366.981772 131.864636 2.488012-229.519108-417.986019z" fill="#FFFFFF" /><path d="M982.640525 687.479394l-299.805448-303.537466-24.258117 34.210165 229.519108 417.986019h13.062063c0.622003 0 49.138237-55.98027 81.482394-148.658718z" fill="#FFFFFF" /><path d="M516.138272 1023.983019c155.500751-1.244006 294.207421-74.018357 385.641862-187.222904l-766.929703 6.842033v8.086039c93.300451 106.362514 229.519108 173.538838 381.287841 172.294832z" fill="#303829" /><path d="M577.592169 202.565852l26.217426 28.288697-327.534341 303.599666-26.217427-28.288696z" fill="#D4D4D4" /><path d="M564.032503 804.415959L295.949209 510.208538l-28.612139 25.502123 245.069184 269.327301z" fill="#D4D4D4" /><path d="M447.717942 735.373625l87.702423 38.564187 37.942183 44.162213-70.908342-18.038087z"  /><path d="M279.77713 494.03646c-11.818057 2.488012-21.770105 9.330045-27.990135 19.282093l167.318808 137.462664c12.44006-4.976024-93.922454-92.678448-90.812438-105.740511l-48.516235-51.004246z"  /><path d="M278.533124 525.13661m-42.296204 0a42.296204 42.296204 0 1 0 84.592409 0 42.296204 42.296204 0 1 0-84.592409 0Z" fill="#EBF2F0" /><path d="M756.853435 833.6501c0-15.550075-12.44006-27.368132-27.990136-27.368132-63.444306 0-118.180571-6.22003-186.600901-24.258117h-51.626249c-67.798327 18.66009-122.534592 26.124126-185.978898 27.368132-15.550075 0-27.368132 12.44006-27.368133 27.990135l248.801202-1.866009 230.763115-1.866009z" fill="#D4D4D4" /><path d="M690.921116 408.822048m-72.152348 0a72.152348 72.152348 0 1 0 144.304697 0 72.152348 72.152348 0 1 0-144.304697 0Z" fill="#FFFFFF" /><path d="M498.100185 215.379114c-7.464036 6.22003-9.330045 16.794081-4.976024 24.88012l75.262363 134.974652-24.258117 167.940811 327.795583-279.901352-193.442934 5.598028-103.874502-93.300451c-6.842033-6.22003-18.038087-6.842033-25.502123-0.622003l-51.004246 40.430195z" fill="#F9CC2D" /><path d="M554.702458 168.728889l51.004247 82.726399c23.636114 37.942183 69.042333 57.224276 112.582543 47.272229l153.634742-34.832169-193.442934 5.598028-116.314562-105.118508-7.464036 4.354021z"  /></svg>