<?xml version="1.0" standalone="no"?><!DOCTYPE svg PUBLIC "-//W3C//DTD SVG 1.1//EN" "http://www.w3.org/Graphics/SVG/1.1/DTD/svg11.dtd"><svg class="icon" width="200px" height="199.80px" viewBox="0 0 1025 1024" version="1.1" xmlns="http://www.w3.org/2000/svg"><path d="M512 0C229.216545 0 0 229.216545 0 512c0 37.995134 4.360097 75.367397 12.457421 110.871046 50.452555 229.216545 255.377129 401.128954 500.16545 401.128954s449.090024-171.912409 500.16545-401.128954c8.097324-35.50365 12.457421-72.875912 12.457421-110.871046-1.245742-282.783455-230.462287-512-513.245742-512z" fill="#A2CD40" /><path d="M501.411192 275.309002m-4.982968 0a4.982968 4.982968 0 1 0 9.965937 0 4.982968 4.982968 0 1 0-9.965937 0Z" fill="#A2CD40" /><path d="M604.807786 181.255474H219.250608v655.883212h530.686132V327.007299z" fill="#EBEBEB" /><path d="M605.430657 327.007299l146.374696 231.708029-1.868613-231.708029z"  /><path d="M605.430657 327.007299h144.506083L605.430657 181.255474z" fill="#FFFFFF" /><path d="M283.406326 300.846715h150.734793v252.885645H283.406326zM472.759124 358.773723H722.530414V373.722628H472.759124zM472.759124 589.858881H722.530414v14.948905H472.759124zM275.309002 589.858881h177.518249v14.948905H275.309002zM472.759124 667.094891H722.530414v14.948905H472.759124zM275.309002 667.094891h177.518249v14.948905H275.309002zM472.759124 782.948905H722.530414v14.948905H472.759124zM275.309002 782.948905h177.518249v14.948905H275.309002zM472.759124 474.627737H722.530414v14.948905H472.759124zM472.759124 551.863747H722.530414V566.812652H472.759124zM589.858881 397.391727H722.530414v14.948906H589.858881zM474.004866 397.391727h92.184915v14.948906H474.004866zM589.858881 513.245742H722.530414v14.948905H589.858881zM474.004866 513.245742h92.184915v14.948905H474.004866zM589.858881 628.476886H722.530414v14.948905H589.858881zM474.004866 628.476886h92.184915v14.948905H474.004866z" fill="#A8A8A8" /><path d="M359.396594 628.476886h97.167883v14.948905H359.396594zM275.309002 628.476886H342.579075v14.948905H275.309002z" fill="#A8A8A8" /><path d="M472.759124 705.712895H722.530414v14.948905H472.759124zM359.396594 705.712895h97.167883v14.948905H359.396594zM275.309002 705.712895H342.579075v14.948905H275.309002z" fill="#A8A8A8" /><path d="M472.759124 744.3309H722.530414v14.948905H472.759124zM359.396594 744.3309h97.167883v14.948905H359.396594zM275.309002 744.3309H342.579075v14.948905H275.309002z" fill="#A8A8A8" /><path d="M639.688564 436.009732h83.464721v14.948905h-83.464721zM474.004866 436.009732h150.111922v14.948905H474.004866z" fill="#A8A8A8" /><path d="M283.406326 553.73236l41.73236-90.939173 49.829684 90.316302z" fill="#7D7D7D" /><path d="M338.841849 553.73236l63.532847-154.472019 28.029197 153.849148z" fill="#7D7D7D" /><path d="M327.007299 376.836983m-17.440389 0a17.440389 17.440389 0 1 0 34.880779 0 17.440389 17.440389 0 1 0-34.880779 0Z" fill="#7D7D7D" /><path d="M841.498783 439.746959v-1.868614l-14.326034-44.846715h-12.457421l-0.622871 46.092458z" fill="#CFBCB5" /><path d="M814.092457 439.124088l0.622871-46.092458h-7.474452l-16.194647 44.223844v1.868614z" fill="#958696" /><path d="M827.172749 393.03163l-9.343065-29.274939-0.622871 29.274939z" fill="#41447F" /><path d="M817.206813 393.03163l0.622871-29.274939-10.588808 29.274939z" fill="#010047" /><path d="M826.549878 826.549878c5.605839 0 10.588808-4.360097 10.588808-9.965936l0.622871-29.897811h-27.406326l-0.622871 39.863747h16.817518z" fill="#FB7A70" /><path d="M786.686131 816.583942c0 5.605839 4.360097 9.965937 9.343066 9.965936h13.703163l0.622871-39.863747h-23.046229l-0.622871 29.897811z" fill="#FB7A70" /><path d="M810.778783 754.122433l-23.046228-0.267834 3.730997-314.518735 23.046229 0.267834z" fill="#396B8C" /><path d="M841.623358 439.908905l-3.494307 314.518735-27.406326-0.305207 3.500535-314.518735z" fill="#5A9CA5" /><path d="M837.917275 754.265693l-0.361265 32.389295-27.406326-0.305207 0.361265-32.389294z" fill="#CFBCB5" /><path d="M810.486034 786.698589l-23.046229-0.267835 0.373723-32.389294 23.046229 0.267834z" fill="#8584AC" /></svg>